<svg width="180" height="180" viewBox="0 0 180 180" fill="none" xmlns="http://www.w3.org/2000/svg">
<circle cx="90" cy="90" r="71.4375" fill="#B6D1D0"/>
<rect x="16.875" y="49.5" width="146.25" height="99" rx="5.625" fill="#F0EACF"/>
<rect x="25.3125" y="66.375" width="55.6875" height="8.4375" rx="3.375" fill="white"/>
<rect x="25.3125" y="86.0625" width="25.3125" height="3.9375" rx="1.96875" fill="white"/>
<rect x="25.3125" y="120.375" width="25.3125" height="3.9375" rx="1.96875" fill="white"/>
<rect x="55.6875" y="86.0625" width="25.3125" height="3.9375" rx="1.96875" fill="white"/>
<rect x="55.6875" y="120.375" width="25.3125" height="3.9375" rx="1.96875" fill="white"/>
<rect x="25.3125" y="97.3125" width="55.6875" height="3.9375" rx="1.96875" fill="white"/>
<rect x="25.875" y="109.125" width="37.125" height="3.9375" rx="1.96875" fill="white"/>
<rect x="68.0625" y="109.125" width="12.9375" height="3.9375" rx="1.96875" fill="white"/>
<rect x="97.3125" y="31.5" width="57.375" height="99" rx="5.625" fill="#001D2F"/>
<mask id="mask0_1277_2725" style="mask-type:alpha" maskUnits="userSpaceOnUse" x="97" y="31" width="58" height="100">
<rect x="97.3125" y="31.5" width="57.375" height="99" rx="5.625" fill="white"/>
</mask>
<g mask="url(#mask0_1277_2725)">
<rect x="97.3125" y="31.5" width="57.375" height="47.8125" fill="url(#paint0_linear_1277_2725)"/>
<path d="M115.102 112.208C115.102 114.009 116.534 115.481 118.342 115.588L118.552 115.594H134.01C135.846 115.594 137.346 114.188 137.455 112.415L137.461 112.208V107.875C137.461 107.202 136.905 106.656 136.219 106.656C135.582 106.656 135.057 107.127 134.985 107.733L134.977 107.875V112.208C134.977 112.688 134.613 113.085 134.142 113.148L134.01 113.156H118.552C118.063 113.156 117.659 112.8 117.595 112.337L117.586 112.208V107.875C117.586 107.202 117.03 106.656 116.344 106.656C115.707 106.656 115.182 107.127 115.11 107.733L115.102 107.875V112.208Z" fill="white"/>
<path d="M132.68 101.597C133.128 102.036 133.163 102.727 132.784 103.205L132.68 103.32L127.16 108.737C126.712 109.176 126.007 109.21 125.52 108.838L125.403 108.737L119.882 103.32C119.397 102.844 119.397 102.073 119.882 101.597C120.33 101.157 121.034 101.124 121.522 101.495L121.639 101.597L126.281 106.151L130.924 101.597C131.371 101.157 132.076 101.124 132.563 101.495L132.68 101.597Z" fill="white"/>
<path d="M125.039 94.875C125.039 94.2019 125.595 93.6563 126.281 93.6563C126.918 93.6563 127.443 94.1267 127.515 94.7329L127.523 94.875V107.875C127.523 108.548 126.967 109.094 126.281 109.094C125.644 109.094 125.119 108.623 125.047 108.017L125.039 107.875V94.875Z" fill="white"/>
</g>
<defs>
<linearGradient id="paint0_linear_1277_2725" x1="147.584" y1="103.219" x2="190.661" y2="12.6341" gradientUnits="userSpaceOnUse">
<stop stop-color="#B6D1D0"/>
<stop offset="0.999781" stop-color="#F0EACF"/>
</linearGradient>
</defs>
</svg>
