<?xml version="1.0" encoding="UTF-8"?>
<svg width="242px" height="96px" viewBox="0 0 242 96" version="1.1" xmlns="http://www.w3.org/2000/svg" xmlns:xlink="http://www.w3.org/1999/xlink">
    <title>Combined Shape</title>
    <g id="Password-Manager-(Design)" stroke="none" stroke-width="1" fill="none" fill-rule="evenodd">
        <g id="Vault---Locked" transform="translate(-54.000000, -99.000000)" fill="#DAE8E7">
            <path d="M248,99 C274.509668,99 296,120.490332 296,147 C296,173.509668 274.509668,195 248,195 C233.389547,195 220.303727,188.472274 211.499927,178.174212 C202.696273,188.472274 189.610453,195 175,195 C160.389547,195 147.303727,188.472274 138.499927,178.174212 C129.696273,188.472274 116.610453,195 102,195 C75.490332,195 54,173.509668 54,147 C54,120.490332 75.490332,99 102,99 C116.610453,99 129.696273,105.527726 138.500073,115.825788 C147.303727,105.527726 160.389547,99 175,99 C189.610453,99 202.696273,105.527726 211.500073,115.825788 C220.303727,105.527726 233.389547,99 248,99 Z" id="Combined-Shape"></path>
        </g>
    </g>
</svg>