<?xml version="1.0" encoding="UTF-8"?>
<svg width="180px" height="180px" viewBox="0 0 180 180" version="1.1" xmlns="http://www.w3.org/2000/svg" xmlns:xlink="http://www.w3.org/1999/xlink">
    <title>Logo</title>
    <g id="Page-1" stroke="none" stroke-width="1" fill="none" fill-rule="evenodd">
        <g id="Logo">
            <rect id="Background" fill="#FF5A5F" x="0" y="0" width="180" height="180"></rect>
            <path d="M135.508333,107 C135.008333,105.8 134.508333,104.5 134.008333,103.4 C133.208333,101.6 132.408333,99.9 131.708333,98.3 L131.608333,98.2 C124.708333,83.2 117.308333,68 109.508333,53 L109.208333,52.4 C108.408333,50.9 107.608333,49.3 106.808333,47.7 C105.808333,45.9 104.808333,44 103.208333,42.2 C100.008333,38.2 95.4083333,36 90.5083333,36 C85.5083333,36 81.0083333,38.2 77.7083333,42 C76.2083333,43.8 75.1083333,45.7 74.1083333,47.5 C73.3083333,49.1 72.5083333,50.7 71.7083333,52.2 L71.4083333,52.8 C63.7083333,67.8 56.2083333,83 49.3083333,98 L49.2083333,98.2 C48.5083333,99.8 47.7083333,101.5 46.9083333,103.3 C46.4083333,104.4 45.9083333,105.6 45.4083333,106.9 C44.1083333,110.6 43.7083333,114.1 44.2083333,117.7 C45.3083333,125.2 50.3083333,131.5 57.2083333,134.3 C59.8083333,135.4 62.5083333,135.9 65.3083333,135.9 C66.1083333,135.9 67.1083333,135.8 67.9083333,135.7 C71.2083333,135.3 74.6083333,134.2 77.9083333,132.3 C82.0083333,130 85.9083333,126.7 90.3083333,121.9 C94.7083333,126.7 98.7083333,130 102.708333,132.3 C106.008333,134.2 109.408333,135.3 112.708333,135.7 C113.508333,135.8 114.508333,135.9 115.308333,135.9 C118.108333,135.9 120.908333,135.4 123.408333,134.3 C130.408333,131.5 135.308333,125.1 136.408333,117.7 C137.208333,114.2 136.808333,110.7 135.508333,107 Z M90.4083333,112.2 C85.0083333,105.4 81.5083333,99 80.3083333,93.6 C79.8083333,91.3 79.7083333,89.3 80.0083333,87.5 C80.2083333,85.9 80.8083333,84.5 81.6083333,83.3 C83.5083333,80.6 86.7083333,78.9 90.4083333,78.9 C94.1083333,78.9 97.4083333,80.5 99.2083333,83.3 C100.008333,84.5 100.608333,85.9 100.808333,87.5 C101.108333,89.3 101.008333,91.4 100.508333,93.6 C99.3083333,98.9 95.8083333,105.3 90.4083333,112.2 Z M130.308333,116.9 C129.608333,122.1 126.108333,126.6 121.208333,128.6 C118.808333,129.6 116.208333,129.9 113.608333,129.6 C111.108333,129.3 108.608333,128.5 106.008333,127 C102.408333,125 98.8083333,121.9 94.6083333,117.3 C101.208333,109.2 105.208333,101.8 106.708333,95.2 C107.408333,92.1 107.508333,89.3 107.208333,86.7 C106.808333,84.2 105.908333,81.9 104.508333,79.9 C101.408333,75.4 96.2083333,72.8 90.4083333,72.8 C84.6083333,72.8 79.4083333,75.5 76.3083333,79.9 C74.9083333,81.9 74.0083333,84.2 73.6083333,86.7 C73.2083333,89.3 73.3083333,92.2 74.1083333,95.2 C75.6083333,101.8 79.7083333,109.3 86.2083333,117.4 C82.1083333,122 78.4083333,125.1 74.8083333,127.1 C72.2083333,128.6 69.7083333,129.4 67.2083333,129.7 C64.5083333,130 61.9083333,129.6 59.6083333,128.7 C54.7083333,126.7 51.2083333,122.2 50.5083333,117 C50.2083333,114.5 50.4083333,112 51.4083333,109.2 C51.7083333,108.2 52.2083333,107.2 52.7083333,106 C53.4083333,104.4 54.2083333,102.7 55.0083333,101 L55.1083333,100.8 C62.0083333,85.9 69.4083333,70.7 77.1083333,55.9 L77.4083333,55.3 C78.2083333,53.8 79.0083333,52.2 79.8083333,50.7 C80.6083333,49.1 81.5083333,47.6 82.6083333,46.3 C84.7083333,43.9 87.5083333,42.6 90.6083333,42.6 C93.7083333,42.6 96.5083333,43.9 98.6083333,46.3 C99.7083333,47.6 100.608333,49.1 101.408333,50.7 C102.208333,52.2 103.008333,53.8 103.808333,55.3 L104.108333,55.9 C111.708333,70.8 119.108333,86 126.008333,100.9 L126.008333,101 C126.808333,102.6 127.508333,104.4 128.308333,106 C128.808333,107.2 129.308333,108.2 129.608333,109.2 C130.408333,111.8 130.708333,114.3 130.308333,116.9 Z" id="Shape" fill="#FFFFFF" fill-rule="nonzero"></path>
        </g>
    </g>
</svg>