<?xml version="1.0" encoding="UTF-8"?>
<svg width="180px" height="180px" viewBox="0 0 180 180" version="1.1" xmlns="http://www.w3.org/2000/svg" xmlns:xlink="http://www.w3.org/1999/xlink">
    <title>Logo</title>
    <g id="Page-1" stroke="none" stroke-width="1" fill="none" fill-rule="evenodd">
        <g id="Logo">
            <rect id="Background" fill="#FFFFFF" x="0" y="0" width="180" height="180"></rect>
            <path d="M136.011121,130.722613 C84.1190406,155.472904 51.9142436,134.76505 31.2989329,122.187536 C30.0232659,121.394862 27.8550759,122.372855 29.7362778,124.538376 C36.6042676,132.88418 59.1121218,153 88.4914175,153 C117.890931,153 135.380931,136.923158 137.568845,134.118656 C139.741967,131.337874 138.206926,129.803922 136.010628,130.722613 L136.011121,130.722613 Z M150.584889,122.656518 C149.19137,120.837915 142.111344,120.498904 137.655632,121.04745 C133.193017,121.580182 126.494656,124.313521 127.077015,125.954711 C127.375837,126.569478 127.98581,126.293723 131.051455,126.017473 C134.125482,125.71009 142.737097,124.620905 144.531512,126.971745 C146.33431,129.338894 141.784908,140.615218 140.954023,142.43382 C140.151245,144.252423 141.260735,144.721405 142.768655,143.510156 C144.255865,142.299402 146.948228,139.163795 148.75497,134.726504 C150.549386,130.264997 151.643589,124.041225 150.584396,122.656518 L150.584889,122.656518 Z" id="Shape" fill="#FF9900" fill-rule="nonzero"></path>
            <path d="M92.0886307,27 C100.182977,27 110.756663,29.1571196 117.143381,35.2998451 C123.809313,41.5359425 124.461944,49.4893841 124.484695,58.2435353 L124.484967,59.1845023 C124.482496,60.6004233 124.468722,62.0361804 124.465992,63.4879685 L124.465522,89.949346 C124.465522,96.8005116 126.951676,100.275259 129.615625,103.875594 L129.98826,104.379134 C130.237143,104.71584 130.486636,105.055043 130.73488,105.399561 C131.810839,106.899908 132.045065,108.705662 130.688035,109.830428 C127.295954,112.667052 121.260328,117.942482 117.938762,120.896723 L117.891917,120.849775 C116.792782,121.834193 115.20202,121.904861 113.96235,121.248089 C108.441527,116.653152 107.458766,114.519754 104.417777,110.13534 C95.2943171,119.46655 88.8375783,122.256227 77.0005526,122.256227 C63.0111163,122.256227 52.1095139,113.605016 52.1095139,96.2793678 C52.1095139,82.7520287 59.432148,73.5379405 69.8416299,69.0368992 C78.8718924,65.0507991 91.4811232,64.3475732 101.119386,63.2460338 L101.119386,61.0889142 C101.119386,57.126535 101.42314,52.4377032 99.1075111,49.0149746 C97.0719667,45.9436119 93.1887516,44.6775087 89.7730017,44.6775087 C83.4336223,44.6775087 77.7722646,47.9361677 76.392059,54.6882239 C76.1109882,56.1890652 75.0118534,57.6661856 73.5147815,57.7363599 L57.3729345,56.0017689 C56.0163981,55.6963622 54.5193262,54.5948228 54.8935942,52.5078776 C58.6130978,32.9084816 76.2746996,27 92.0886307,27 Z M101.119386,76.6093032 C89.0944869,76.6093032 76.392059,79.1879631 76.392059,93.3957955 C76.392059,100.593113 80.1115626,105.469735 86.4982803,105.469735 C91.1768764,105.469735 95.3643383,102.586163 98.0078832,97.8968368 C101.283098,92.1296923 101.119386,86.7139137 101.119386,80.2198223 L101.119386,80.2198223 Z" id="Combined-Shape" fill="#000000" fill-rule="nonzero"></path>
        </g>
    </g>
</svg>