<?xml version="1.0" encoding="UTF-8"?>
<svg width="180px" height="180px" viewBox="0 0 180 180" version="1.1" xmlns="http://www.w3.org/2000/svg" xmlns:xlink="http://www.w3.org/1999/xlink">
    <title>Logo</title>
    <g id="Page-1" stroke="none" stroke-width="1" fill="none" fill-rule="evenodd">
        <g id="Logo/Apple" fill-rule="nonzero">
            <g id="Logo">
                <rect id="Background" fill="#FFFFFF" x="0" y="0" width="180" height="180"></rect>
                <path d="M121.116615,141.449517 C115.006753,147.397843 108.265615,146.470538 101.840115,143.666004 C95.0087937,140.804927 88.7636586,140.623989 81.549062,143.666004 C72.5646348,147.556164 67.7962374,146.425303 62.38529,141.449517 C31.8359829,109.898511 36.3451057,61.8369415 71.0653515,60.0275648 C79.4861384,60.4799089 85.3818164,64.6980184 90.3418516,65.0485852 C97.7142674,63.5445408 104.771045,59.2359624 112.66201,59.8013927 C122.14244,60.5703778 129.233036,64.3248345 133.967615,71.0760714 C114.465659,82.83702 119.08751,108.620638 137,115.858145 C133.415247,125.30083 128.815942,134.630429 121.105342,141.528677 L121.116615,141.449517 Z M89.6654831,59.6883066 C88.7523858,45.665637 100.081557,34.1308605 113.112922,33 C114.905298,49.1713044 98.4582726,61.2715113 89.6654831,59.6883066 Z" id="Shape" fill="#000000"></path>
            </g>
        </g>
    </g>
</svg>
