<?xml version="1.0" encoding="UTF-8"?>
<svg width="180px" height="180px" viewBox="0 0 180 180" version="1.1" xmlns="http://www.w3.org/2000/svg" xmlns:xlink="http://www.w3.org/1999/xlink">
    <title>Logo</title>
    <g id="Page-1" stroke="none" stroke-width="1" fill="none" fill-rule="evenodd">
        <g id="Logo">
            <rect id="Background" fill="#000000" x="0" y="0" width="180" height="180"></rect>
            <path d="M27,108 L63.015,108 L63.015,72 L27,72 L27,108 Z M51.92,97.3994169 C51.29,98.2740525 50.415,98.9387755 49.295,99.393586 C48.14,99.8483965 46.775,100.093294 45.2,100.093294 L37.115,100.093294 L37.115,79.8717201 L44.71,79.8717201 C46.95,79.8717201 48.7,80.3265306 49.925,81.2011662 C51.15,82.1107872 51.78,83.3702624 51.78,85.0495627 C51.78,86.0291545 51.57,86.8338192 51.115,87.5685131 C50.66,88.2682216 50.03,88.8279883 49.155,89.2478134 C50.345,89.6326531 51.255,90.2623907 51.885,91.1370262 C52.515,91.9766764 52.83,93.0262391 52.83,94.2507289 C52.865,95.4752187 52.55,96.5247813 51.92,97.3994169 L51.92,97.3994169 Z M46.775,87.4985423 C47.335,87.0437318 47.615,86.3790087 47.615,85.574344 C47.615,83.9650146 46.53,83.1603499 44.325,83.1603499 L41.21,83.1603499 L41.21,88.1982507 L44.325,88.1982507 C45.41,88.1982507 46.215,87.9533528 46.775,87.4985423 Z M44.85,91.3819242 L41.21,91.3819242 L41.21,96.8396501 L44.78,96.8396501 C46.005,96.8396501 46.95,96.5947522 47.615,96.1399417 C48.28,95.6851312 48.595,95.0204082 48.595,94.1457726 C48.63,92.2915452 47.37,91.3819242 44.85,91.3819242 Z M72.01,108 L108.025,108 L108.025,72 L72.01,72 L72.01,108 Z M96.93,97.3994169 C96.3,98.2740525 95.425,98.9387755 94.305,99.393586 C93.15,99.8483965 91.785,100.093294 90.21,100.093294 L82.16,100.093294 L82.16,79.8717201 L89.755,79.8717201 C91.995,79.8717201 93.745,80.3265306 94.97,81.2011662 C96.195,82.1107872 96.825,83.3702624 96.825,85.0495627 C96.825,86.0291545 96.615,86.8338192 96.16,87.5685131 C95.705,88.2682216 95.075,88.8279883 94.2,89.2478134 C95.39,89.6326531 96.3,90.2623907 96.93,91.1370262 C97.56,91.9766764 97.875,93.0262391 97.875,94.2507289 C97.84,95.4752187 97.525,96.5247813 96.93,97.3994169 L96.93,97.3994169 Z M91.785,87.4985423 C92.345,87.0437318 92.625,86.3790087 92.625,85.574344 C92.625,83.9650146 91.54,83.1603499 89.335,83.1603499 L86.22,83.1603499 L86.22,88.1982507 L89.335,88.1982507 C90.42,88.1982507 91.225,87.9533528 91.785,87.4985423 Z M89.86,91.3819242 L86.22,91.3819242 L86.22,96.8396501 L89.79,96.8396501 C91.015,96.8396501 91.96,96.5947522 92.625,96.1399417 C93.29,95.6851312 93.605,95.0204082 93.605,94.1457726 C93.64,92.2915452 92.38,91.3819242 89.86,91.3819242 Z M116.985,108 L153,108 L153,72 L116.985,72 L116.985,108 Z M142.85,98.8338192 C142.01,99.2886297 141.03,99.6734694 139.945,99.9183673 C138.825,100.198251 137.67,100.303207 136.445,100.303207 C134.835,100.303207 133.365,100.058309 132.07,99.6034985 C130.775,99.1137026 129.69,98.4489796 128.78,97.574344 C127.87,96.6997085 127.205,95.6151603 126.715,94.3206997 C126.225,93.0262391 126.015,91.5918367 126.015,89.9825073 C126.015,88.4081633 126.26,87.0087464 126.75,85.7142857 C127.24,84.4548105 127.975,83.3702624 128.885,82.4606414 C129.83,81.5510204 130.95,80.851312 132.245,80.3965015 C133.54,79.9067055 135.01,79.6618076 136.62,79.6618076 C137.74,79.6618076 138.79,79.7667638 139.805,80.0116618 C140.82,80.2565598 141.73,80.5714286 142.605,81.0262391 L142.605,84.9446064 C141.835,84.4198251 140.96,84.0349854 140.05,83.755102 C139.105,83.4752187 138.125,83.335277 137.18,83.3702624 C135.78,83.3702624 134.59,83.6151603 133.61,84.1399417 C132.63,84.6297376 131.86,85.4344023 131.37,86.3790087 C130.845,87.3586006 130.6,88.548105 130.6,89.9475219 C130.6,91.3469388 130.845,92.5714286 131.37,93.5510204 C131.86,94.5306122 132.63,95.3002915 133.575,95.8250729 C134.555,96.3498542 135.71,96.5947522 137.075,96.5947522 C139.175,96.5947522 141.1,96.0349854 142.885,94.9504373 L142.885,98.8338192 L142.85,98.8338192 L142.85,98.8338192 Z" id="Shape" fill="#FFFFFF" fill-rule="nonzero"></path>
        </g>
    </g>
</svg>