<svg height="46" viewBox="0 0 46 46" width="46" xmlns="http://www.w3.org/2000/svg"><g fill="none" fill-rule="evenodd"><circle cx="23" cy="23" fill="#175ddc" r="23"/><path d="m33.673772 11.3212355c-.2140871-.2108108-.4791473-.3212355-.7747915-.3212355h-19.797961c-.2956442 0-.5607044.1104247-.7747915.3212355s-.326228.4718147-.326228.7629344v13c0 .9737452.1936979 1.9274131.570899 2.8810811.3873957.9536679.8563485 1.7969112 1.4272474 2.5397683.570899.7428571 1.2437442 1.4555985 2.0287303 2.1583012s1.5088045 1.284942 2.1714551 1.7467181 1.3558851.9034749 2.0797034 1.3150579c.7238184.411583 1.2335496.6926641 1.5393883.8332047.3058388.1505791.5505098.2610038.734013.3413127.1325301.0702703.2854495.1003861.4485635.1003861s.3058387-.0301158.4485635-.1003861c.1835032-.0803089.4281742-.1907336.734013-.3413127.3058387-.1505792.8155699-.4216217 1.5393883-.8332047.7238183-.411583 1.4170528-.8532818 2.0797034-1.3150579s1.386469-1.0440154 2.1714551-1.7467181 1.4578313-1.4154441 2.0287303-2.1583012c.5708989-.7428571 1.0398517-1.5861004 1.4272474-2.5397683.3873958-.953668.570899-1.9173746.570899-2.8810811v-13c0-.2911197-.1121409-.542085-.326228-.7629344zm-2.5486562 13.8833977c0 4.7081081-8.1149212 8.753668-8.1149212 8.753668v-20.1776062h8.1149212z" fill="#fff" fill-rule="nonzero"/></g></svg>