<?xml version="1.0" encoding="UTF-8"?>
<svg width="180px" height="180px" viewBox="0 0 180 180" version="1.1" xmlns="http://www.w3.org/2000/svg" xmlns:xlink="http://www.w3.org/1999/xlink">
    <title>Logo</title>
    <g id="Page-1" stroke="none" stroke-width="1" fill="none" fill-rule="evenodd">
        <g id="Logo">
            <rect id="Background" fill="#CC1417" x="0" y="0" width="180" height="180"></rect>
            <path d="M77.4537408,61.0009697 C71.8778473,60.9243839 66.9579455,65.3912084 66.9579455,71.8744611 L66.9579455,100.844913 C66.9579455,101.380929 66.7561126,101.865894 66.4028804,102.248764 C66.0496564,102.606111 65.5702797,102.835835 65.0656749,102.835835 L54.0652727,102.835835 C47.3287908,102.810307 41.8538219,97.3480416 41.7781315,90.5584867 C41.8033657,83.6923626 47.3287908,78.1790424 54.115731,78.1790424 L63.4509378,78.1790424 L63.4509378,71.1597713 L53.9895823,71.1597713 C47.1017195,71.1597713 40.7436896,74.8608447 37.3123682,80.859128 C33.881061,86.8574155 33.881061,94.2340356 37.3123682,100.232319 C40.7436896,106.230606 47.1017195,109.93168 53.9895823,109.93168 L72.1049226,109.93168 C73.0889042,109.855094 73.8962707,109.063843 73.946733,108.06838 L73.946733,71.9510366 C73.9719672,70.0622101 75.2082482,68.3775899 77.0248243,67.8160429 C79.1189361,67.3055511 81.2887424,68.3520633 82.2222617,70.3174591 L93.4749672,89.9203725 L104.424907,108.859641 C104.979974,109.829582 105.787341,110.314549 106.519019,110.110349 C107.149778,109.93169 107.578693,109.319088 107.528233,108.655443 L107.528233,71.9510366 C107.553467,70.0622101 108.789746,68.3775899 110.581098,67.8160429 C112.70044,67.2289817 114.945932,68.3010164 115.803761,70.3174591 L126.274326,88.4654685 L138.031635,108.859641 C138.611932,109.829582 139.394072,110.314549 140.150979,110.110349 C140.781736,109.93169 141.185421,109.319088 141.134958,108.655443 L141.134958,61.3327901 L134.196635,61.3327901 L134.196635,89.5885521 L121.98518,68.4286409 C114.567478,55.7939476 100.564675,61.0009697 100.564675,71.9255101 L100.564675,89.5375011 L88.3532203,68.4031143 C85.3508174,63.247137 81.2635123,61.0520208 77.4537408,61.0009697 Z M54.0400406,61.3327901 C37.9935819,61.3327901 25,74.4269222 25,90.5584867 C25,106.664525 37.9935819,119.758661 54.0400406,119.758661 L72.3319939,119.758661 C75.4605496,120.039434 78.5638751,118.89082 80.7841396,116.61913 C82.979172,114.372963 84.0893022,111.233433 83.7613104,108.06838 L83.7613104,91.4263214 L95.9727633,112.560712 C103.365235,125.22093 117.368042,120.013908 117.368042,109.089365 L117.368042,91.4773724 L129.579493,112.611763 C136.997195,125.246457 151,120.064959 151,109.140414 L151,61.3327901 L143.985978,61.3327901 L143.985978,108.91069 C144.011213,111.20791 142.245093,113.14778 139.974366,113.326453 C138.20825,113.275396 136.618739,112.254416 135.81137,110.671892 L124.028832,90.2777174 L113.482576,71.9510366 C112.902281,70.9810999 112.12014,70.4961326 111.413695,70.7258571 C110.782937,70.9045161 110.379253,71.5171162 110.404485,72.180757 L110.404485,108.859641 C110.379251,110.77399 109.142968,112.433092 107.351618,113.020153 C105.257504,113.505124 103.062469,112.458618 102.15418,110.493218 L91.2042424,91.5539459 L79.8506163,71.9510366 C79.2955512,70.9810999 78.5134148,70.4961326 77.7565066,70.7258571 C77.1257469,70.9045161 76.6968346,71.5171162 76.7472948,72.180757 L76.7472948,108.06838 C76.6968468,110.595316 74.6784132,112.637288 72.1553849,112.713861 L53.9895823,112.713861 C41.8033616,112.713861 31.9383178,102.75926 31.9383178,90.5074419 C31.9383178,78.2300914 41.8033616,68.3010164 53.9895823,68.3010164 L63.4004775,68.3010164 L63.4004775,61.3327901 L54.0400406,61.3327901 Z" id="path839" fill="#FFFFFF" fill-rule="nonzero"></path>
        </g>
    </g>
</svg>