<?xml version="1.0" encoding="UTF-8"?>
<svg width="180px" height="180px" viewBox="0 0 180 180" version="1.1" xmlns="http://www.w3.org/2000/svg" xmlns:xlink="http://www.w3.org/1999/xlink">
    <title>Logo/Dashlane@1x</title>
    <g id="Logo/Dashlane" stroke="none" stroke-width="1" fill="none" fill-rule="evenodd">
        <g id="Logo">
            <rect id="Background" fill="#00363F" x="0" y="0" width="180" height="180"></rect>
            <path d="M98.4509514,80.5533343 L109.898393,84.7777645 C111.748199,85.4344772 114,84.5567555 114,83.1801848 L114,54.0259332 C114,53.3597488 113.444116,52.7630243 112.549049,52.4472971 L101.101607,48.2228669 C99.2518012,47.5661543 97,48.4407187 97,49.801503 L97,78.9557546 C97,79.621939 97.5590246,80.2344498 98.4509514,80.5533343" id="Path" fill="#FFFFFF" fill-rule="nonzero"></path>
            <path d="M98.4509514,132.554775 L109.898393,136.777426 C111.748199,137.433862 114,136.559666 114,135.183675 L114,106.0417 C114,105.375796 113.444116,104.763543 112.549049,104.444793 L101.101607,100.222142 C99.2518012,99.5657058 97,100.443058 97,101.819049 L97,130.954712 C97,131.620616 97.5590246,132.232869 98.4509514,132.548463" id="Path" fill="#FFFFFF" fill-rule="nonzero"></path>
            <path d="M77.4525615,70.5060911 L88.9127058,74.7754034 C90.7645645,75.4390932 93,74.5520463 93,73.1608503 L93,41.1059093 C93,40.432647 92.4434992,39.8136287 91.5474385,39.4913562 L80.1061587,35.2252347 C78.2511559,34.5615449 76,35.4454011 76,36.8206429 L76,68.8915381 C76,69.5648003 76.5565008,70.1870095 77.4525615,70.5060911" id="Path" fill="#FFFFFF" fill-rule="nonzero"></path>
            <path d="M77.4525615,141.113199 L88.9127058,145.391363 C90.7645645,146.056429 93,145.17074 93,143.773462 L93,111.735191 C93,111.060533 92.4434992,110.440231 91.5474385,110.11729 L80.1061587,105.842323 C78.2511559,105.177257 76,106.062946 76,107.457026 L76,139.495298 C76,140.169956 76.5565008,140.790258 77.4525615,141.113199" id="Path" fill="#FFFFFF" fill-rule="nonzero"></path>
            <path d="M71,42.7126368 C71,42.0407686 70.4409754,41.438953 69.545908,41.1014268 L58.1016072,36.8409545 C56.2518012,36.1786389 54,37.0638492 54,38.4521645 L54,138.519132 C54,139.191 54.555884,139.811921 55.4509514,140.130342 L66.8983928,144.393999 C68.7481988,145.05313 71,144.171104 71,142.782789 L71,42.7126368 Z" id="Path" fill="#FFFFFF" fill-rule="nonzero"></path>
            <path d="M133.530205,69.4670445 L122.082764,65.223254 C120.232958,64.5635317 118,65.4452759 118,66.8281553 L118,114.930792 C118,115.600029 118.555884,116.215347 119.450951,116.532521 L130.898393,120.776312 C132.748199,121.436034 135,120.557462 135,119.174582 L135,71.0719459 C135,70.4027083 134.440975,69.7873904 133.545908,69.4670445" id="Path" fill="#FFFFFF" fill-rule="nonzero"></path>
        </g>
    </g>
</svg>