<?xml version="1.0" encoding="UTF-8"?>
<svg width="180px" height="180px" viewBox="0 0 180 180" version="1.1" xmlns="http://www.w3.org/2000/svg" xmlns:xlink="http://www.w3.org/1999/xlink">
    <title>Logo</title>
    <g id="Page-1" stroke="none" stroke-width="1" fill="none" fill-rule="evenodd">
        <g id="Logo">
            <rect id="Background" fill="#5865F2" x="0" y="0" width="180" height="180"></rect>
            <path d="M130.891983,52.4605089 C123.371062,49.0073638 115.306012,46.4632386 106.873499,45.0061125 C106.719933,44.9779904 106.566533,45.048269 106.487423,45.1888295 C105.450187,47.0348269 104.301266,49.4430814 103.496705,51.3359584 C94.4269927,49.9772512 85.4038154,49.9772512 76.5200776,51.3359584 C75.7153509,49.4010063 74.5247143,47.0348269 73.4828242,45.1888295 C73.4037143,45.0529587 73.2503143,44.9826802 73.0967481,45.0061125 C64.6688892,46.4585821 56.6038386,49.0027072 49.0782642,52.4605089 C49.0131149,52.4886144 48.9572726,52.5355122 48.9202107,52.5963796 C33.6225082,75.4655669 29.4318281,97.7726452 31.4876356,119.803159 C31.4969377,119.910925 31.5574019,120.014033 31.6411237,120.079557 C41.7341105,127.496402 51.5108923,131.999095 61.1061202,134.983594 C61.2596864,135.030492 61.4223935,134.974281 61.5201174,134.847723 C63.7898723,131.746146 65.8131567,128.475769 67.5479229,125.036593 C67.6503003,124.835199 67.5525764,124.596219 67.3433342,124.516559 C64.1340666,123.298379 61.0781991,121.813115 58.1386696,120.126455 C57.9061597,119.990584 57.8875457,119.657809 58.1014414,119.49849 C58.7200273,119.034667 59.3387794,118.552051 59.9294442,118.064779 C60.036309,117.975806 60.1852217,117.957014 60.3108667,118.013225 C79.6223141,126.835841 100.529254,126.835841 119.612846,118.013225 C119.738491,117.952357 119.887403,117.97115 119.998922,118.060123 C120.589753,118.547395 121.208339,119.034667 121.831578,119.49849 C122.045474,119.657809 122.031513,119.990584 121.799003,120.126455 C118.859474,121.845877 115.803606,123.298379 112.589685,124.511903 C112.380443,124.591563 112.287373,124.835199 112.38975,125.036593 C114.161744,128.470946 116.185029,131.741323 118.412902,134.843067 C118.505972,134.974281 118.673333,135.030492 118.826899,134.983594 C128.468662,131.999095 138.245378,127.496402 148.338366,120.079557 C148.426783,120.014033 148.482625,119.915581 148.491932,119.807816 C150.952315,94.3381262 144.370907,72.2139827 131.045383,52.6010362 C131.012809,52.5355122 130.957133,52.4886144 130.891983,52.4605089 Z M70.4317763,106.388878 C64.6177004,106.388878 59.8270667,101.047678 59.8270667,94.4881328 C59.8270667,87.9285872 64.5247962,82.5873878 70.4317763,82.5873878 C76.3851255,82.5873878 81.1293902,87.975485 81.0363197,94.4881328 C81.0363197,101.047678 76.3385903,106.388878 70.4317763,106.388878 Z M109.640849,106.388878 C103.826939,106.388878 99.0363052,101.047678 99.0363052,94.4881328 C99.0363052,87.9285872 103.733869,82.5873878 109.640849,82.5873878 C115.594364,82.5873878 120.338462,87.975485 120.245558,94.4881328 C120.245558,101.047678 115.594364,106.388878 109.640849,106.388878 Z" id="Shape" fill="#FFFFFF" fill-rule="nonzero"></path>
        </g>
    </g>
</svg>