<?xml version="1.0" encoding="UTF-8"?>
<svg width="180px" height="180px" viewBox="0 0 180 180" version="1.1" xmlns="http://www.w3.org/2000/svg" xmlns:xlink="http://www.w3.org/1999/xlink">
    <title>Logo</title>
    <g id="Page-1" stroke="none" stroke-width="1" fill="none" fill-rule="evenodd">
        <g id="Logo">
            <rect id="Background" fill="#FFFFFF" x="0" y="0" width="180" height="180"></rect>
            <path d="M37.4910021,73.4360822 C27.404814,73.4360822 19,77.6929423 19,90.5356949 C19,100.709982 24.651629,107.117137 37.7514386,107.117137 C53.1705279,107.117137 54.1589475,97.0128206 54.1589475,97.0128206 L46.6876712,97.0128206 C46.6876712,97.0128206 45.0857669,102.453607 37.2956745,102.453607 C30.9508571,102.453607 26.3874157,98.1897406 26.3874157,92.2133118 L54.9402574,92.2133118 L54.9402574,88.4630145 C54.9402574,82.5504475 51.1672754,73.4360822 37.4910021,73.4360822 L37.4910021,73.4360822 Z M37.2305652,78.2291553 C43.2701744,78.2291553 47.3875946,81.9099455 47.3875946,87.426674 L26.5526628,87.426674 C26.5526628,81.5699919 31.9269452,78.2291553 37.2305652,78.2291553 L37.2305652,78.2291553 Z" id="e" fill="#E53238" fill-rule="nonzero"></path>
            <path d="M54.9349576,61 L54.9349576,100.667557 C54.9349576,102.919214 54.7734139,106.080797 54.7734139,106.080797 L61.8994372,106.080797 C61.8994372,106.080797 62.1552145,103.810103 62.1552145,101.73491 C62.1552145,101.73491 65.6759303,107.214294 75.2490175,107.214294 C85.3298639,107.214294 92.1773983,100.251814 92.1773983,90.2766096 C92.1773983,80.9968209 85.8877165,73.5332389 75.2652922,73.5332389 C65.3181422,73.5332389 62.2271839,78.8768679 62.2271839,78.8768679 L62.2271839,61 L54.9349576,61 Z M73.4259583,78.4396618 C80.2716373,78.4396618 84.6247375,83.493973 84.6247375,90.2766096 C84.6247375,97.5497563 79.5970522,102.307871 73.474792,102.307871 C66.1684107,102.307871 62.2271839,96.6326861 62.2271839,90.341381 C62.2271839,84.4791106 65.7637622,78.4396618 73.4259583,78.4396618 Z" id="b" fill="#0064D2" fill-rule="nonzero"></path>
            <path d="M109.88709,73.4360822 C94.7131823,73.4360822 93.7400191,81.7014519 93.7400191,83.0222288 L101.29268,83.0222288 C101.29268,83.0222288 101.688739,78.1967695 109.366218,78.1967695 C114.355167,78.1967695 118.221066,80.4684401 118.221066,84.8358239 L118.221066,86.3903341 L109.366218,86.3903341 C97.6107782,86.3903341 91.3960879,89.8114174 91.3960879,96.7537358 C91.3960879,103.585974 97.1382629,107.303355 104.898102,107.303355 C115.473558,107.303355 118.880292,101.490134 118.880292,101.490134 C118.880292,103.802315 119.059485,106.080797 119.059485,106.080797 L125.773726,106.080797 C125.773726,106.080797 125.513288,103.256548 125.513288,101.449652 L125.513288,85.831682 C125.513288,75.591193 117.210173,73.4360822 109.88709,73.4360822 L109.88709,73.4360822 Z M118.221066,91.0538647 L118.221066,93.1265451 C118.221066,95.8298853 116.544212,102.550764 106.672328,102.550764 C101.266517,102.550764 98.9487535,99.8668654 98.9487535,96.7537358 C98.9487535,91.0903388 106.754025,91.0538647 118.221066,91.0538647 L118.221066,91.0538647 Z" id="a" fill="#F5AF02" fill-rule="nonzero"></path>
            <polygon id="y" fill="#86B817" fill-rule="nonzero" points="121.446293 74.7328129 129.94304 74.7328129 142.137052 99.0359148 154.303166 74.7328129 162 74.7328129 139.839632 118 131.766094 118 138.160746 105.938681"></polygon>
        </g>
    </g>
</svg>