<?xml version="1.0" encoding="UTF-8"?>
<svg width="180px" height="180px" viewBox="0 0 180 180" version="1.1" xmlns="http://www.w3.org/2000/svg" xmlns:xlink="http://www.w3.org/1999/xlink">
    <title>Logo</title>
    <g id="Page-1" stroke="none" stroke-width="1" fill="none" fill-rule="evenodd">
        <g id="Logo">
            <rect id="Background" fill="#DA3940" fill-rule="nonzero" x="0" y="0" width="180" height="180"></rect>
            <g id="Logo/ExpressVPN/Badge/Red" transform="translate(30.000000, 42.000000)" fill="#FFFFFF">
                <path d="M31.0214908,96 C17.6170009,96 9.06351362,88.4665655 9.06351362,77.9976033 C9.06351362,74.5520492 10.0854837,70.3395382 14.0429815,61.786051 L1.42108547e-14,61.786051 L12.8925461,34.2101142 L102.638012,34.2101142 C104.681953,34.2101142 106.085484,32.6800352 106.085484,30.8930255 C106.085484,29.1060158 104.681953,27.5740193 102.638012,27.5740193 L30.001438,27.5740193 L36.3825198,13.9164337 C40.3400176,5.48949429 48.8935048,0 58.2120316,0 L88.723496,0 C106.340497,0 119.363426,12.1275066 119.363426,27.9574978 C119.363426,46.7230167 102.127986,61.786051 82.213949,61.786051 L23.2349605,61.786051 C21.4460334,65.490453 23.4899736,68.4259807 27.8290325,68.4259807 L74.8089798,68.4259807 C82.5955101,68.4259807 88.5950308,73.9135576 88.5950308,80.9369657 C88.5950308,88.9785092 80.8104178,96 72,96 L31.0214908,96 L31.0214908,96 Z" id="Path"></path>
            </g>
        </g>
    </g>
</svg>