<?xml version="1.0" encoding="UTF-8"?>
<svg width="180px" height="180px" viewBox="0 0 180 180" version="1.1" xmlns="http://www.w3.org/2000/svg" xmlns:xlink="http://www.w3.org/1999/xlink">
    <title>Logo</title>
    <defs>
        <polygon id="path-1" points="9.99239755e-15 0 179.996484 0 179.996484 178.906598 9.99239755e-15 178.906598"></polygon>
    </defs>
    <g id="Page-1" stroke="none" stroke-width="1" fill="none" fill-rule="evenodd">
        <g id="Logo">
            <rect id="Background" fill="#1877F2" x="0" y="0" width="180" height="180"></rect>
            <g id="Group-3">
                <mask id="mask-2" fill="white">
                    <use xlink:href="#path-1"></use>
                </mask>
                <g id="Clip-2"></g>
                <path d="M179.996484,89.9964842 C179.996484,40.2888785 139.700574,-0.00703152467 89.9929685,-0.00703152467 C40.2853627,-0.00703152467 -0.010547287,40.2888785 -0.010547287,89.9964842 C-0.010547287,134.919841 32.9024376,172.154576 75.9299191,178.906598 L75.9299191,116.013126 L53.077464,116.013126 L53.077464,89.9964842 L75.9299191,89.9964842 L75.9299191,70.1675847 C75.9299191,47.6104535 89.3668112,35.1505918 109.925583,35.1505918 C119.772706,35.1505918 130.072659,36.908473 130.072659,36.908473 L130.072659,59.0577757 L118.723427,59.0577757 C107.542775,59.0577757 104.056018,65.9956053 104.056018,73.1132661 L104.056018,89.9964842 L129.01793,89.9964842 L125.02754,116.013126 L104.056018,116.013126 L104.056018,178.906598 C147.083499,172.154576 179.996484,134.919841 179.996484,89.9964842" id="Fill-1" fill="#1877F2" mask="url(#mask-2)"></path>
            </g>
            <path d="M129.01793,89.9964842 L104.056018,89.9964842 L104.056018,73.1132661 C104.056018,65.9956053 107.542775,59.0577757 118.723427,59.0577757 L130.072659,59.0577757 L130.072659,36.908473 C130.072659,36.908473 119.772706,35.1505918 109.925583,35.1505918 C89.3668112,35.1505918 75.9299191,47.6104535 75.9299191,70.1675847 L75.9299191,89.9964842 L53.077464,89.9964842 L53.077464,116.013126 L75.9299191,116.013126 L75.9299191,180 L104.056018,180 L104.056018,116.013126 L125.02754,116.013126 L129.01793,89.9964842 Z" id="Fill-4" fill="#FFFFFF"></path>
        </g>
    </g>
</svg>