<?xml version="1.0" encoding="UTF-8"?>
<svg width="180px" height="180px" viewBox="0 0 180 180" version="1.1" xmlns="http://www.w3.org/2000/svg" xmlns:xlink="http://www.w3.org/1999/xlink">
    <title>Logo</title>
    <g id="Page-1" stroke="none" stroke-width="1" fill="none" fill-rule="evenodd">
        <g id="Logo">
            <rect id="Background" fill="#FFCEAC" x="0" y="0" width="180" height="180"></rect>
            <path d="M147.732657,45 L148,63.8964511 L145.591547,63.8964511 C144.254832,49.9587385 140.909496,48.2176106 128.466611,48.2176106 L124.453311,48.2176106 L124.453311,101.288831 C124.453311,106.381867 126.326289,107.051774 134.353677,107.051774 L134.353677,110 L102.512257,110 L102.512257,107.051774 C110.539645,107.051774 112.5459,106.247569 112.5459,101.288831 L112.5459,48.2168206 L108.532601,48.2168206 C96.0905045,48.2168206 92.7459566,49.9587385 91.4076643,63.8964511 L89,63.8964511 L89.267343,45 L147.732657,45 L147.732657,45 Z" id="Path" fill="#333333"></path>
            <path d="M51.2095535,101.288725 C51.2095535,105.979715 52.5663448,107.051739 61.2467706,107.051739 L61.2467706,110 L31,110 L31,107.051739 C36.9676428,107.051739 39.0032294,106.515332 39.0032294,101.423024 L39.0032294,53.5777659 C39.0032294,48.484668 36.9676428,47.9482614 31,47.9482614 L31,45 L81.728162,45 L82,62.8246576 L79.5582555,62.8246576 C78.2014642,49.4231821 74.8106854,48.2176497 62.1966044,48.2176497 L51.0744341,48.2176497 L51.0744341,74.7535823 L60.0258983,74.7535823 C68.5712046,74.7535823 69.114081,73.4129608 69.7920769,66.712223 L72.2338214,66.712223 L72.2338214,86.1453105 L69.7920769,86.1453105 C69.114081,79.4445727 68.5712046,78.2374603 60.0258983,78.2374603 L51.0744341,78.2374603 L51.0744341,101.289515 L51.210353,101.289515 L51.2095535,101.288725 Z" id="Path" fill="#333333"></path>
        </g>
    </g>
</svg>