<?xml version="1.0" encoding="UTF-8"?>
<svg width="180px" height="180px" viewBox="0 0 180 180" version="1.1" xmlns="http://www.w3.org/2000/svg" xmlns:xlink="http://www.w3.org/1999/xlink">
    <title>Logo</title>
    <g id="Page-1" stroke="none" stroke-width="1" fill="none" fill-rule="evenodd">
        <g id="Logo">
            <rect id="Background" fill="#181715" x="0" y="0" width="180" height="180"></rect>
            <path d="M101.619185,137.458092 C101.619185,136.610043 101.541302,135.916185 101.446113,135.916185 C100.072806,135.916185 93.6732852,134.57394 92.6445818,134.070138 C88.9847085,132.277737 87.2928357,128.017298 86.6363532,118.940338 C86.1696878,112.487921 85.7053079,93.5316757 86.0067215,93.2384974 C86.2800334,92.972653 98.4657631,93.4449448 99.8898548,93.7765755 C103.827531,94.6935507 106.862649,98.4611149 108.382396,104.318561 L109.052237,106.900289 L110.811923,106.983754 L112.571608,107.067216 L112.571608,90.7937246 L112.571608,74.5202307 L110.698167,74.5202307 C108.946705,74.5202307 108.824726,74.5613575 108.824726,75.1519025 C108.824726,76.214131 107.731467,79.5754278 106.696544,81.6951385 C105.075614,85.0151009 102.79276,87.01902 99.8898548,87.6701367 C99.1765062,87.830139 95.8092038,88.0864181 92.4069603,88.2396472 C87.6084759,88.4557554 86.1687367,88.4418109 85.9877565,88.1774719 C85.653258,87.6889003 86.4157224,50.7780739 86.7957427,49.062985 L86.9390004,48.4164351 L97.5215864,48.5022913 L108.104172,48.5881503 L110.566787,49.4459892 C116.270841,51.4329697 120.375233,55.4905022 123.804379,62.5324499 C124.574787,64.1145284 125.562246,66.4182083 125.998726,67.6517335 C126.435206,68.8852595 126.821443,69.9337314 126.857027,69.9816707 C126.892614,70.02961 127.839338,69.7977295 128.960863,69.4663848 L131,68.8639391 L130.856613,59.7072604 C130.777749,54.6710849 130.6384,48.626698 130.546944,46.2752891 L130.380661,42 L90.190331,42 L50,42 L50.0858088,43.7509285 L50.1716173,45.501857 L52.7656123,45.8174378 C56.2260244,46.2384263 57.4948234,46.6051199 58.8882599,47.5869421 C61.0005203,49.0752473 62.2995521,51.2616302 63.1175604,54.7052087 C64.388419,60.0551765 64.8458153,72.1203553 64.6339781,94.7052019 C64.4101423,118.569019 64.1007133,123.532273 62.5366167,128.346821 C61.2502258,132.306549 58.8559961,134.405629 54.9013066,135.040886 C53.8128876,135.215724 52.2710201,135.494644 51.4749346,135.66071 L50.0275064,135.962647 L50.0275064,137.481322 L50.0275064,139 L75.8233456,139 L101.619185,139 L101.619185,137.458092 L101.619185,137.458092 Z" id="path2995-path" fill="#FFFFFF"></path>
        </g>
    </g>
</svg>