<?xml version="1.0" encoding="UTF-8"?>
<svg width="180px" height="180px" viewBox="0 0 180 180" version="1.1" xmlns="http://www.w3.org/2000/svg" xmlns:xlink="http://www.w3.org/1999/xlink">
    <title>Logo</title>
    <g id="Page-1" stroke="none" stroke-width="1" fill="none" fill-rule="evenodd">
        <g id="Logo">
            <rect id="Background" fill="#FFFFFF" x="0" y="0" width="180" height="180"></rect>
            <path d="M154.5,91.485 C154.5,87.14 154.115581,83.015 153.456577,79 L91.4003831,79 L91.4003831,103.805 L126.931673,103.805 C125.33908,111.945 120.671137,118.82 113.751596,123.495 L113.751596,139.995 L134.949553,139.995 C147.360792,128.5 154.5,111.56 154.5,91.485 Z" id="Path" fill="#4285F4" fill-rule="nonzero"></path>
            <path d="M91.4003831,156 C109.193487,156 124.07599,150.06 134.949553,139.995 L113.751596,123.495 C107.820562,127.455 100.296935,129.875 91.4003831,129.875 C74.2113665,129.875 59.6583653,118.27 54.4412516,102.595 L32.5842912,102.595 L32.5842912,119.59 C43.4029374,141.15 65.6443167,156 91.4003831,156 Z" id="Path" fill="#34A853" fill-rule="nonzero"></path>
            <path d="M54.4412516,102.595 C53.0683269,98.635 52.3544061,94.4 52.3544061,90 C52.3544061,85.6 53.1232439,81.365 54.4412516,77.405 L54.4412516,60.41 L32.5842912,60.41 C28.0810983,69.32 25.5,79.33 25.5,90 C25.5,100.67 28.0810983,110.68 32.5842912,119.59 L54.4412516,102.595 Z" id="Path" fill="#FBBC05" fill-rule="nonzero"></path>
            <path d="M91.4003831,50.125 C101.12069,50.125 109.797573,53.48 116.662197,60.025 L135.443806,41.215 C124.07599,30.545 109.193487,24 91.4003831,24 C65.6443167,24 43.4029374,38.85 32.5842912,60.41 L54.4412516,77.405 C59.6583653,61.73 74.2113665,50.125 91.4003831,50.125 Z" id="Path" fill="#EA4335" fill-rule="nonzero"></path>
        </g>
    </g>
</svg>