<?xml version="1.0" encoding="UTF-8"?>
<svg width="180px" height="180px" viewBox="0 0 180 180" version="1.1" xmlns="http://www.w3.org/2000/svg" xmlns:xlink="http://www.w3.org/1999/xlink">
    <title>Logo</title>
    <g id="Page-1" stroke="none" stroke-width="1" fill="none" fill-rule="evenodd">
        <g id="Logo">
            <rect id="Background" fill="#1CE783" x="0" y="0" width="180" height="180"></rect>
            <polygon id="XMLID_2490_-path" fill="#040405" fill-rule="nonzero" points="103.92126 109 113.401575 109 113.401575 70 103.92126 70"></polygon>
            <path d="M87.2755906,97.880618 C87.2755906,99.25 86.1181102,100.400281 84.7401575,100.400281 L79.2283465,100.400281 C77.8503937,100.400281 76.6929134,99.25 76.6929134,97.880618 C76.6929134,97.3328652 76.6929134,82.1601124 76.6929134,82.1601124 L67.2125984,82.1601124 L67.2125984,98.6474719 C67.2125984,105.384831 71.5669291,108.945225 77.9606299,108.945225 L87.2204724,108.945225 C93.1181102,108.945225 96.7007874,104.727528 96.7007874,98.6474719 L96.7007874,82.1601124 L87.2204724,82.1601124 C87.2755906,82.1601124 87.2755906,97.3876404 87.2755906,97.880618 Z" id="XMLID_2490_-path" fill="#040405" fill-rule="nonzero"></path>
            <path d="M140.574803,82.1601124 C140.574803,82.1601124 140.574803,97.3876404 140.574803,97.880618 C140.574803,99.25 139.417323,100.400281 138.03937,100.400281 L132.527559,100.400281 C131.149606,100.400281 129.992126,99.25 129.992126,97.880618 C129.992126,97.3328652 129.992126,82.1601124 129.992126,82.1601124 L120.511811,82.1601124 L120.511811,98.6474719 C120.511811,105.384831 124.866142,108.945225 131.259843,108.945225 L140.519685,108.945225 C146.417323,108.945225 150,104.727528 150,98.6474719 L150,82.1601124 L140.574803,82.1601124 Z" id="XMLID_2490_-path" fill="#040405" fill-rule="nonzero"></path>
            <path d="M49.7401575,82.1601124 C49.7401575,82.1601124 44.8346457,82.1601124 43.6771654,82.1601124 C41.5275591,82.1601124 40.480315,82.7078652 40.480315,82.7078652 L40.480315,70 L31,70 L31,108.945225 L40.4251969,108.945225 L40.4251969,93.2794944 C40.4251969,91.9101124 41.5826772,90.7598315 42.9606299,90.7598315 L48.4724409,90.7598315 C49.8503937,90.7598315 51.007874,91.9101124 51.007874,93.2794944 L51.007874,109 L60.488189,109 L60.488189,92.0196629 C60.488189,84.8988764 55.6929134,82.1601124 49.7401575,82.1601124 Z" id="XMLID_2490_-path" fill="#040405" fill-rule="nonzero"></path>
        </g>
    </g>
</svg>