<?xml version="1.0" encoding="UTF-8"?>
<svg width="180px" height="180px" viewBox="0 0 180 180" version="1.1" xmlns="http://www.w3.org/2000/svg" xmlns:xlink="http://www.w3.org/1999/xlink">
    <title>Logo/iCloud Keychain@1x</title>
    <defs>
        <linearGradient x1="86.412713%" y1="88.0426897%" x2="24.014638%" y2="88.0426897%" id="linearGradient-1">
            <stop stop-color="#137CFA" offset="0%"></stop>
            <stop stop-color="#7CDDFA" offset="100%"></stop>
        </linearGradient>
    </defs>
    <g id="Logo/iCloud-Keychain" stroke="none" stroke-width="1" fill="none" fill-rule="evenodd">
        <path d="M102.337989,31 C126.68854,31 146.529296,50.3602287 147.384668,74.5664831 C161.439724,77.5005049 172,89.9919815 172,104.956522 C172,121.929913 158.414183,135.721703 141.551101,135.995841 L141.039106,136 L141.039106,136 L41.7821229,136 L41.782,135.996 L41.6877885,135.995535 C23.5847744,135.70124 9,120.895348 9,102.673913 C9,89.2140684 16.9581968,77.6179181 28.4140847,72.3578656 C30.2563586,60.312176 40.6361148,51.0869565 53.1648045,51.0869565 C56.8366409,51.0869565 60.3239,51.8793339 63.4657748,53.3028526 C71.2993862,39.9566128 85.7755056,31 102.337989,31 Z M67.132621,76 C56.0136815,76 47,84.954305 47,96 C47,107.045695 56.0136815,116 67.132621,116 C75.6988833,116 83.0155733,110.685188 85.9235945,103.193852 L85.9235945,103.193852 L92.5857684,103.193402 L97.1180769,98.9231401 L101.713403,103.193402 L105.94953,98.9231401 L109.995667,103.193402 L114.664917,98.9231401 L119.145434,103.193402 L123.792286,98.9231401 L128.544989,103.193402 C133.514996,102.210154 136,99.5093227 136,95.0909091 C136,88.8848197 130.285986,88.8848197 127.297808,88.8848197 L85.9536323,88.884015 C83.0662085,81.3516673 75.7285335,76 67.132621,76 Z M58.8965488,90.5454545 C61.9289869,90.5454545 64.3872636,92.9875377 64.3872636,96 C64.3872636,99.0124623 61.9289869,101.454545 58.8965488,101.454545 C55.8641107,101.454545 53.405834,99.0124623 53.405834,96 C53.405834,92.9875377 55.8641107,90.5454545 58.8965488,90.5454545 Z" id="Combined-Shape" fill="url(#linearGradient-1)"></path>
    </g>
</svg>