<?xml version="1.0" encoding="UTF-8"?>
<svg width="180px" height="180px" viewBox="0 0 180 180" version="1.1" xmlns="http://www.w3.org/2000/svg" xmlns:xlink="http://www.w3.org/1999/xlink">
    <title>Logo</title>
    <g id="Page-1" stroke="none" stroke-width="1" fill="none" fill-rule="evenodd">
        <g id="Logo">
            <rect id="Background" fill="#FFFFFF" x="0" y="0" width="180" height="180"></rect>
            <rect id="Rectangle" fill="#2867B2" x="40" y="40" width="100" height="100" rx="8"></rect>
            <path d="M126.111111,126.111111 L111.271701,126.111111 L111.271701,100.836271 C111.271701,93.9066031 108.6386,90.0340726 103.153754,90.0340726 C97.1869575,90.0340726 94.0695529,94.0640421 94.0695529,100.836271 L94.0695529,126.111111 L79.7685185,126.111111 L79.7685185,77.9629629 L94.0695529,77.9629629 L94.0695529,84.4485115 C94.0695529,84.4485115 98.3695024,76.4919654 108.586878,76.4919654 C118.799552,76.4919654 126.111111,82.7284313 126.111111,95.6266833 L126.111111,126.111111 Z M62.7074292,71.6583518 C57.8361907,71.6583518 53.8888889,67.6800788 53.8888889,62.7736204 C53.8888889,57.8671619 57.8361907,53.8888889 62.7074292,53.8888889 C67.5786675,53.8888889 71.5236183,57.8671619 71.5236183,62.7736204 C71.5236183,67.6800788 67.5786675,71.6583518 62.7074292,71.6583518 Z M55.322989,126.111111 L70.2352792,126.111111 L70.2352792,77.9629629 L55.322989,77.9629629 L55.322989,126.111111 Z" id="Shape" fill="#FFFFFF" fill-rule="nonzero"></path>
        </g>
    </g>
</svg>