<?xml version="1.0" encoding="UTF-8"?>
<svg width="180px" height="180px" viewBox="0 0 180 180" version="1.1" xmlns="http://www.w3.org/2000/svg" xmlns:xlink="http://www.w3.org/1999/xlink">
    <title>Logo</title>
    <g id="Page-1" stroke="none" stroke-width="1" fill="none" fill-rule="evenodd">
        <g id="Logo">
            <rect id="Background" fill="#000000" x="0" y="0" width="180" height="180"></rect>
            <path d="M97.8582184,89.6515599 C97.8582184,107.684503 83.3390932,122.30301 65.4291092,122.30301 C47.519015,122.30301 33,107.684503 33,89.6515599 C33,71.6185063 47.519015,57 65.4291092,57 C83.3390932,57 97.8582184,71.6185063 97.8582184,89.6515599" id="Fill-3" fill="#FFFFFF"></path>
            <path d="M133.434031,89.6515599 C133.434031,106.626458 126.174358,120.387333 117.219035,120.387333 C108.264153,120.387333 101.004591,106.626458 101.004591,89.6515599 C101.004591,72.6765521 108.264153,58.9156766 117.219035,58.9156766 C126.174358,58.9156766 133.434031,72.6765521 133.434031,89.6515599" id="Fill-4" fill="#FFFFFF"></path>
            <path d="M147.985328,89.6515599 C147.985328,104.860404 145.432488,117.189507 142.28248,117.189507 C139.133573,117.189507 136.579632,104.860404 136.579632,89.6515599 C136.579632,74.4426061 139.133573,62.1135024 142.28248,62.1135024 C145.432488,62.1135024 147.985328,74.4426061 147.985328,89.6515599" id="Fill-5" fill="#FFFFFF"></path>
        </g>
    </g>
</svg>