<?xml version="1.0" encoding="UTF-8"?>
<svg width="180px" height="180px" viewBox="0 0 180 180" version="1.1" xmlns="http://www.w3.org/2000/svg" xmlns:xlink="http://www.w3.org/1999/xlink">
    <title>Logo</title>
    <g id="Page-1" stroke="none" stroke-width="1" fill="none" fill-rule="evenodd">
        <g id="Logo/Notion" fill-rule="nonzero">
            <g id="Logo">
                <rect id="Background" fill="#FFFFFF" x="0" y="0" width="180" height="180"></rect>
                <path d="M55.9327854,55.1062247 C59.3179266,57.8536332 60.5704288,57.6579973 66.9344943,57.2241959 L126.622996,53.6176907 C127.892424,53.6176907 126.834567,52.3503103 126.411425,52.1376626 L116.467573,44.9331581 C113.892756,42.7316015 110.508742,41.7328766 107.158434,42.1857497 L49.3656115,46.4387039 C47.2583611,46.6428457 46.8267556,47.7060843 47.6730409,48.5566751 L55.9073969,55.1232365 L55.9327854,55.1062247 Z M59.5125722,69.0899383 L59.5125722,132.212285 C59.5125722,135.614649 61.2051428,136.873523 64.9965009,136.660876 L130.600537,132.850229 C134.400358,132.637581 134.831964,130.298456 134.831964,127.551048 L134.831964,64.84549 C134.831964,62.0980815 133.774107,60.5925357 131.446822,60.8221952 L62.8977134,64.84549 C60.3588575,65.0581377 59.5125722,66.334024 59.5125722,69.0984442 L59.5125722,69.0899383 Z M124.278786,72.4923017 C124.693466,74.3976252 124.278786,76.3029488 122.374644,76.5155965 L119.243388,77.1365278 L119.243388,123.740401 C116.501424,125.220429 113.971031,126.062514 111.863781,126.062514 C108.478639,126.062514 107.632354,125.007781 105.093498,121.809559 L84.4018228,89.206412 L84.4018228,120.771839 L90.9436081,122.251867 C90.9436081,122.251867 90.9436081,126.062514 85.6712507,126.062514 L71.1151436,126.913104 C70.692001,126.062514 71.1151436,123.953048 72.5961429,123.510741 L76.387501,122.447502 L76.387501,80.7345271 L71.1151436,80.3092317 C70.8457718,79.1719892 71.0896102,77.9732291 71.7814561,77.0335013 C72.473302,76.0937735 73.5425908,75.5089254 74.7033933,75.4353461 L90.3088941,74.3806134 L111.829929,107.451586 L111.829929,78.1912604 L106.346,77.5618232 C106.149861,76.5328304 106.411911,75.4691167 107.063095,74.6509951 C107.71428,73.8328735 108.689273,73.3424159 109.731142,73.3088689 L124.295712,72.4582781 L124.278786,72.4923017 Z M44.5333225,40.6972157 L104.619578,36.2486255 C112.041501,35.6106824 113.93718,36.0444837 118.574823,39.4043176 L137.768574,53.0137712 C140.933681,55.3443901 142,55.9738274 142,58.517094 L142,132.875746 C142,137.528478 140.307429,140.284393 134.383432,140.709688 L64.5648954,144.962642 C60.1303605,145.17529 58.0231101,144.537347 55.7042884,141.560279 L41.5882497,123.102457 C39.0493938,119.700094 38,117.148321 38,114.205277 L38,48.1143679 C38,44.3037209 39.6925706,41.1054993 44.5333225,40.6972157 Z" id="Shape" fill="#000000"></path>
            </g>
        </g>
    </g>
</svg>