<?xml version="1.0" encoding="UTF-8"?>
<svg width="180px" height="180px" viewBox="0 0 180 180" version="1.1" xmlns="http://www.w3.org/2000/svg" xmlns:xlink="http://www.w3.org/1999/xlink">
    <title>Logo</title>
    <g id="Page-1" stroke="none" stroke-width="1" fill="none" fill-rule="evenodd">
        <g id="Logo">
            <rect id="Background" fill="#000000" x="0" y="0" width="180" height="180"></rect>
            <path d="M128,52.7700535 C128,41.7540107 117.536232,39 109.275362,39 L109.275362,40.6524064 C114.231884,40.6524064 118.086957,42.3048128 118.086957,46.1604278 C118.086957,48.3636364 116.434783,51.6684492 111.478261,51.6684492 C107.623188,51.6684492 99.3623188,49.4652406 93.3043478,47.2620321 C86.1449275,44.5080214 79.5362319,42.3048128 74.0289855,42.3048128 C63.0144928,42.3048128 55.3043478,50.5668449 55.3043478,59.9304813 C55.3043478,68.1925134 61.3623188,70.9465241 63.5652174,72.0481283 L64.115942,70.9465241 C63.0144928,69.8449198 61.3623188,68.7433155 61.3623188,65.4385027 C61.3623188,63.2352941 63.5652174,59.3796791 69.0724638,59.3796791 C74.0289855,59.3796791 80.6376812,61.5828877 89.4492754,64.3368984 C97.1594203,66.540107 105.42029,68.1925134 109.826087,68.7433155 L109.826087,85.8181818 L101.565217,92.9786096 L101.565217,93.5294118 L109.826087,100.68984 L109.826087,124.374332 C105.42029,127.128342 100.463768,127.679144 96.057971,127.679144 C87.7971014,127.679144 80.6376812,125.475936 74.5797101,118.86631 L97.1594203,107.850267 L97.1594203,69.8449198 L69.6231884,81.9625668 C71.826087,74.802139 77.884058,69.8449198 83.942029,66.540107 L83.3913043,64.8877005 C66.8695652,69.2941176 52,84.7165775 52,103.44385 C52,125.475936 70.173913,142 90.5507246,142 C112.57971,142 126.898551,124.374332 126.898551,106.197861 L125.797101,106.197861 C122.492754,113.358289 117.536232,119.967914 111.478261,123.272727 L111.478261,100.68984 L120.289855,93.5294118 L120.289855,92.9786096 L111.478261,85.8181818 L111.478261,68.7433155 C119.73913,68.7433155 128,63.2352941 128,52.7700535 Z M80.0869565,113.358289 L73.4782609,116.663102 C69.6231884,111.705882 67.4202899,105.096257 67.4202899,95.7326203 C67.4202899,91.8770053 67.4202899,87.4705882 68.5217391,84.1657754 L80.0869565,79.2085561 L80.0869565,113.358289 Z" id="Shape" fill="#FFFFFF" fill-rule="nonzero"></path>
        </g>
    </g>
</svg>