<?xml version="1.0" encoding="UTF-8"?>
<svg width="180px" height="180px" viewBox="0 0 180 180" version="1.1" xmlns="http://www.w3.org/2000/svg" xmlns:xlink="http://www.w3.org/1999/xlink">
    <title>Logo</title>
    <g id="Page-1" stroke="none" stroke-width="1" fill="none" fill-rule="evenodd">
        <g id="Logo">
            <rect id="Background" fill="#FFFFFF" x="0" y="0" width="180" height="180"></rect>
            <path d="M90,0 C40.2702703,0 0,40.3005259 0,90.0676183 C0,128.204358 23.6486486,160.796394 57.1621622,173.91435 C56.3513514,166.746807 55.6756757,155.927874 57.4324324,148.084147 C59.0540541,141.051841 67.972973,103.320811 67.972973,103.320811 C67.972973,103.320811 65.2702703,97.9113449 65.2702703,89.9323817 C65.2702703,77.3553719 72.5675676,68.0240421 81.4864865,68.0240421 C89.1891892,68.0240421 92.8378378,73.8392186 92.8378378,80.7362885 C92.8378378,88.4447784 87.972973,100.075131 85.4054054,110.758828 C83.2432432,119.684448 89.8648649,126.987228 98.7837838,126.987228 C114.72973,126.987228 127.027027,110.082645 127.027027,85.7400451 C127.027027,64.2374155 111.486486,49.0909091 89.4594595,49.0909091 C63.9189189,49.0909091 48.7837838,68.2945154 48.7837838,88.174305 C48.7837838,95.8827949 51.7567568,104.267468 55.5405405,108.730278 C56.2162162,109.676935 56.3513514,110.353118 56.2162162,111.299775 C55.5405405,114.139745 54.0540541,120.225394 53.7837838,121.442524 C53.3783784,123.065364 52.4324324,123.471074 50.8108108,122.659654 C39.5945946,117.385424 32.5675676,101.021788 32.5675676,87.768595 C32.5675676,59.3688956 53.2432432,33.2682194 92.027027,33.2682194 C123.243243,33.2682194 147.432432,55.582269 147.432432,85.1990984 C147.432432,116.168295 127.837838,141.187077 100.810811,141.187077 C91.7567568,141.187077 83.1081081,136.453794 80.1351351,130.909091 C80.1351351,130.909091 75.6756757,148.084147 74.5945946,152.276484 C72.5675676,160.12021 67.027027,169.85725 63.3783784,175.9429 C71.7567568,178.512397 80.6756757,180 90,180 C139.72973,180 180,139.699474 180,89.9323817 C180,40.3005259 139.72973,0 90,0 Z" id="Path" fill="#BD081C" fill-rule="nonzero"></path>
        </g>
    </g>
</svg>