<?xml version="1.0" encoding="UTF-8"?>
<svg width="180px" height="180px" viewBox="0 0 180 180" version="1.1" xmlns="http://www.w3.org/2000/svg" xmlns:xlink="http://www.w3.org/1999/xlink">
    <title>Logo</title>
    <g id="Page-1" stroke="none" stroke-width="1" fill="none" fill-rule="evenodd">
        <g id="Logo">
            <rect id="Background" fill="#FF4500" x="0" y="0" width="180" height="180"></rect>
            <path d="M150,90 C150,82.7368421 144.105263,76.8421053 136.842105,76.8421053 C133.263158,76.8421053 130.105263,78.2105263 127.789474,80.5263158 C118.842105,74.1052632 106.421053,69.8947368 92.7368421,69.3684211 L98.7368421,41.2631579 L118.210526,45.3684211 C118.421053,50.3157895 122.526316,54.3157895 127.578947,54.3157895 C132.736842,54.3157895 136.947368,50.1052632 136.947368,44.9473684 C136.947368,39.7894737 132.736842,35.5789474 127.578947,35.5789474 C123.894737,35.5789474 120.736842,37.6842105 119.263158,40.8421053 L97.4736842,36.2105263 C96.8421053,36.1052632 96.2105263,36.2105263 95.6842105,36.5263158 C95.1578947,36.8421053 94.8421053,37.3684211 94.6315789,38 L88,69.3684211 C74,69.7894737 61.4736842,73.8947368 52.4210526,80.5263158 C50.1052632,78.3157895 46.8421053,76.8421053 43.3684211,76.8421053 C36.1052632,76.8421053 30.2105263,82.7368421 30.2105263,90 C30.2105263,95.3684211 33.3684211,99.8947368 38,102 C37.7894737,103.263158 37.6842105,104.631579 37.6842105,106 C37.6842105,126.210526 61.1578947,142.526316 90.2105263,142.526316 C119.263158,142.526316 142.736842,126.210526 142.736842,106 C142.736842,104.631579 142.631579,103.368421 142.421053,102.105263 C146.736842,100 150,95.3684211 150,90 Z M60,99.3684211 C60,94.2105263 64.2105263,90 69.3684211,90 C74.5263158,90 78.7368421,94.2105263 78.7368421,99.3684211 C78.7368421,104.526316 74.5263158,108.736842 69.3684211,108.736842 C64.2105263,108.736842 60,104.526316 60,99.3684211 Z M112.315789,124.105263 C105.894737,130.526316 93.6842105,130.947368 90.1052632,130.947368 C86.5263158,130.947368 74.2105263,130.421053 67.8947368,124.105263 C66.9473684,123.157895 66.9473684,121.578947 67.8947368,120.631579 C68.8421053,119.684211 70.4210526,119.684211 71.3684211,120.631579 C75.3684211,124.631579 84,126.105263 90.2105263,126.105263 C96.4210526,126.105263 104.947368,124.631579 109.052632,120.631579 C110,119.684211 111.578947,119.684211 112.526316,120.631579 C113.263158,121.684211 113.263158,123.157895 112.315789,124.105263 Z M110.631579,108.736842 C105.473684,108.736842 101.263158,104.526316 101.263158,99.3684211 C101.263158,94.2105263 105.473684,90 110.631579,90 C115.789474,90 120,94.2105263 120,99.3684211 C120,104.526316 115.789474,108.736842 110.631579,108.736842 Z" id="Shape" fill="#FFFFFF" fill-rule="nonzero"></path>
        </g>
    </g>
</svg>