<?xml version="1.0" encoding="UTF-8"?>
<svg width="180px" height="180px" viewBox="0 0 180 180" version="1.1" xmlns="http://www.w3.org/2000/svg" xmlns:xlink="http://www.w3.org/1999/xlink">
    <title>Logo</title>
    <g id="Page-1" stroke="none" stroke-width="1" fill="none" fill-rule="evenodd">
        <g id="Logo">
            <rect id="Background" fill="#4A154B" x="0" y="0" width="180" height="180"></rect>
            <path d="M58.6905537,104.247557 C58.6905537,110.491857 53.5895765,115.592834 47.3452769,115.592834 C41.1009772,115.592834 36,110.491857 36,104.247557 C36,98.0032573 41.1009772,92.9022801 47.3452769,92.9022801 L58.6905537,92.9022801 L58.6905537,104.247557 Z" id="Path" fill="#E01E5A" fill-rule="nonzero"></path>
            <path d="M64.4071661,104.247557 C64.4071661,98.0032573 69.5081433,92.9022801 75.752443,92.9022801 C81.9967427,92.9022801 87.0977199,98.0032573 87.0977199,104.247557 L87.0977199,132.654723 C87.0977199,138.899023 81.9967427,144 75.752443,144 C69.5081433,144 64.4071661,138.899023 64.4071661,132.654723 L64.4071661,104.247557 Z" id="Path" fill="#E01E5A" fill-rule="nonzero"></path>
            <path d="M75.752443,58.6905537 C69.5081433,58.6905537 64.4071661,53.5895765 64.4071661,47.3452769 C64.4071661,41.1009772 69.5081433,36 75.752443,36 C81.9967427,36 87.0977199,41.1009772 87.0977199,47.3452769 L87.0977199,58.6905537 L75.752443,58.6905537 Z" id="Path" fill="#36C5F0" fill-rule="nonzero"></path>
            <path d="M75.752443,64.4071661 C81.9967427,64.4071661 87.0977199,69.5081433 87.0977199,75.752443 C87.0977199,81.9967427 81.9967427,87.0977199 75.752443,87.0977199 L47.3452769,87.0977199 C41.1009772,87.0977199 36,81.9967427 36,75.752443 C36,69.5081433 41.1009772,64.4071661 47.3452769,64.4071661 L75.752443,64.4071661 Z" id="Path" fill="#36C5F0" fill-rule="nonzero"></path>
            <path d="M121.309446,75.752443 C121.309446,69.5081433 126.410423,64.4071661 132.654723,64.4071661 C138.899023,64.4071661 144,69.5081433 144,75.752443 C144,81.9967427 138.899023,87.0977199 132.654723,87.0977199 L121.309446,87.0977199 L121.309446,75.752443 Z" id="Path" fill="#2EB67D" fill-rule="nonzero"></path>
            <path d="M115.592834,75.752443 C115.592834,81.9967427 110.491857,87.0977199 104.247557,87.0977199 C98.0032573,87.0977199 92.9022801,81.9967427 92.9022801,75.752443 L92.9022801,47.3452769 C92.9022801,41.1009772 98.0032573,36 104.247557,36 C110.491857,36 115.592834,41.1009772 115.592834,47.3452769 L115.592834,75.752443 Z" id="Path" fill="#2EB67D" fill-rule="nonzero"></path>
            <path d="M104.247557,121.309446 C110.491857,121.309446 115.592834,126.410423 115.592834,132.654723 C115.592834,138.899023 110.491857,144 104.247557,144 C98.0032573,144 92.9022801,138.899023 92.9022801,132.654723 L92.9022801,121.309446 L104.247557,121.309446 Z" id="Path" fill="#ECB22E" fill-rule="nonzero"></path>
            <path d="M104.247557,115.592834 C98.0032573,115.592834 92.9022801,110.491857 92.9022801,104.247557 C92.9022801,98.0032573 98.0032573,92.9022801 104.247557,92.9022801 L132.654723,92.9022801 C138.899023,92.9022801 144,98.0032573 144,104.247557 C144,110.491857 138.899023,115.592834 132.654723,115.592834 L104.247557,115.592834 Z" id="Path" fill="#ECB22E" fill-rule="nonzero"></path>
        </g>
    </g>
</svg>