<?xml version="1.0" encoding="UTF-8"?>
<svg width="180px" height="180px" viewBox="0 0 180 180" version="1.1" xmlns="http://www.w3.org/2000/svg" xmlns:xlink="http://www.w3.org/1999/xlink">
    <title>Logo</title>
    <g id="Page-1" stroke="none" stroke-width="1" fill="none" fill-rule="evenodd">
        <g id="Logo">
            <rect id="Background" fill="#1ED760" x="0" y="0" width="180" height="180"></rect>
            <path d="M130.543344,130.085459 C128.940234,132.714622 125.498892,133.548259 122.869793,131.934423 C101.856234,119.098553 75.4027895,116.191512 44.2490283,123.309488 C41.2469386,123.993498 38.2544675,122.112471 37.5704741,119.109241 C36.8832745,116.106011 38.7567752,113.113468 41.766346,112.429459 C75.8591413,104.637092 105.103065,107.994083 128.694424,122.411725 C131.323524,124.025561 132.157141,127.456297 130.543344,130.085459 L130.543344,130.085459 Z" id="Path" fill="#FFFFFF" fill-rule="nonzero"></path>
            <path d="M141.497925,105.712269 C139.478007,108.998722 135.181674,110.035424 131.900643,108.015458 C107.843313,93.2248168 71.1716491,88.9422747 42.7164556,97.580035 C39.0260975,98.6947571 35.128404,96.61494 34.0083648,92.9309064 C32.8968756,89.2404602 34.9777117,85.3501549 38.6616573,84.2279515 C71.1652367,74.3653863 111.573215,79.1427667 139.200135,96.1201017 C142.481166,98.1400679 143.517843,102.436504 141.497925,105.713338 L141.497925,105.712269 Z" id="Path" fill="#FFFFFF" fill-rule="nonzero"></path>
            <path d="M142.438416,80.3355087 C113.593133,63.2021339 66.0021554,61.6267741 38.461803,69.9855866 C34.0393583,71.3268869 29.3625535,68.8302514 28.022354,64.4077011 C26.6821544,59.9830132 29.1765928,55.309303 33.6022438,53.9647964 C65.2166317,44.367285 117.771905,46.2215926 150.981921,65.9371041 C154.96832,68.2980064 156.272182,73.4355606 153.910268,77.4081608 C151.55904,81.3861049 146.407715,82.6974797 142.442691,80.3355087 L142.438416,80.3355087 Z" id="Path" fill="#FFFFFF" fill-rule="nonzero"></path>
        </g>
    </g>
</svg>