<?xml version="1.0" encoding="UTF-8"?>
<svg width="180px" height="180px" viewBox="0 0 180 180" version="1.1" xmlns="http://www.w3.org/2000/svg" xmlns:xlink="http://www.w3.org/1999/xlink">
    <title>Logo</title>
    <g id="Page-1" stroke="none" stroke-width="1" fill="none" fill-rule="evenodd">
        <g id="Logo">
            <rect id="Background" fill="#1C2D63" x="0" y="0" width="180" height="180"></rect>
            <path d="M102.626226,100.478582 C102.626226,99.3137797 102.85332,98.8145786 101.850768,98.148977 C100.792583,97.6491858 96.6147247,96.1308988 95,95.4887658 L95,93 L136,93 C136,93.3965323 136,94.9608681 136,95.4887658 C134.585783,96.2920962 131.790983,97.5065723 129.696158,98.4629851 C128.359422,99.1285866 128.480864,98.8145786 128.480864,100.312182 C128.592259,122.40865 128.592259,133.567817 128.480864,133.789685 C118.753036,142.309615 105.486789,145.810667 102.626226,146 C102.664711,144.555623 102.664711,129.381818 102.626226,100.478582 Z" id="Path" fill="#FFFFFF"></path>
            <path d="M37,90.5 C37,78.4716312 40.0669933,67.2370958 47.57615,57.2214022 C55.0853066,47.2057086 63.653021,40.7720027 74.9036145,37.5501182 C81.9889988,35.5403685 89.351349,34.6840937 94.9711123,35.1043022 C95.0080928,36.3863795 95.0111356,36.6112047 94.9711123,37.5501182 C91.0766762,37.5501182 79.5736303,39.246368 72.7400388,60.78775 C68.9557976,72.7167317 68.9557976,96.9987209 70.8329658,110.794292 C72.7400388,121.64667 78.0546601,142.956188 94.9192778,143.567367 C94.9458389,145.189122 94.9458389,146 94.9192778,146 C84.2356812,146 70.8329658,142.579974 63.1696546,137.679219 C54.4026362,132.072634 43.3682255,121.632339 40.7719347,111.322309 C38.8247166,105.308124 37,96.943769 37,90.5 Z" id="Path" fill="#FFFFFF"></path>
            <path d="M103,36 C117.14888,38.0108678 128.787594,47.8833752 129,48.3006574 L129,69 C128.150376,69 127.387195,69 126.623128,69 C126.198316,68.7913589 105.383039,41.8314993 103,38.5999622 L103,36 Z" id="Path" fill="#FFFFFF"></path>
        </g>
    </g>
</svg>