<?xml version="1.0" encoding="UTF-8"?>
<svg width="180px" height="180px" viewBox="0 0 180 180" version="1.1" xmlns="http://www.w3.org/2000/svg" xmlns:xlink="http://www.w3.org/1999/xlink">
    <title>Logo</title>
    <g id="Page-1" stroke="none" stroke-width="1" fill="none" fill-rule="evenodd">
        <g id="Logo/Twitter" fill-rule="nonzero">
            <g id="Logo">
                <rect id="Background" fill="#1D9BF0" x="0" y="0" width="180" height="180"></rect>
                <path d="M69.12,139.72 C111.555,139.72 134.775,104.53 134.775,74.065 C134.775,73.075 134.775,72.085 134.73,71.095 C139.23,67.855 143.145,63.76 146.25,59.125 C142.11,60.97 137.655,62.185 132.975,62.77 C137.745,59.935 141.39,55.39 143.145,49.99 C138.69,52.645 133.74,54.535 128.475,55.57 C124.245,51.07 118.26,48.28 111.645,48.28 C98.91,48.28 88.56,58.63 88.56,71.365 C88.56,73.165 88.785,74.92 89.145,76.63 C69.975,75.685 52.965,66.46 41.58,52.51 C39.6,55.93 38.475,59.89 38.475,64.12 C38.475,72.13 42.57,79.195 48.735,83.335 C44.955,83.2 41.4,82.165 38.295,80.455 C38.295,80.545 38.295,80.635 38.295,80.77 C38.295,91.93 46.26,101.29 56.79,103.405 C54.855,103.945 52.83,104.215 50.715,104.215 C49.23,104.215 47.79,104.08 46.395,103.81 C49.32,112.99 57.87,119.65 67.95,119.83 C60.03,126.04 50.085,129.73 39.285,129.73 C37.44,129.73 35.595,129.64 33.795,129.415 C43.965,135.895 56.115,139.72 69.12,139.72" id="Path" fill="#FFFFFF"></path>
            </g>
        </g>
    </g>
</svg>