<?xml version="1.0" encoding="UTF-8"?>
<svg width="180px" height="180px" viewBox="0 0 180 180" version="1.1" xmlns="http://www.w3.org/2000/svg" xmlns:xlink="http://www.w3.org/1999/xlink">
    <title>Logo</title>
    <g id="Page-1" stroke="none" stroke-width="1" fill="none" fill-rule="evenodd">
        <g id="Logo">
            <rect id="Background" fill="#2D8CFF" x="0" y="0" width="180" height="180"></rect>
            <path d="M129.587386,84.396477 C130.069017,85.2181908 130.226587,86.1530916 130.278615,87.2041199 L130.346996,88.6050024 L130.346996,98.4008833 L130.416861,99.8032345 C130.556594,102.093448 132.2646,103.786855 134.598428,103.930912 L136.009132,104 L136.009132,88.6050024 L136.078998,87.2041199 C136.136971,86.1648511 136.293056,85.2123111 136.782119,84.3847175 C137.79637,82.6570913 139.665197,81.5953165 141.685333,81.598954 C143.705469,81.6025916 145.570373,82.6710895 146.578255,84.4023568 C147.059885,85.2240706 147.210023,86.1766106 147.267998,87.2041199 L147.337864,88.6005929 L147.337864,98.4008833 L147.407729,99.8032345 C147.553408,102.105208 149.248036,103.798614 151.589298,103.930912 L153,104 L153,87.2041199 C153,81.0196048 147.931337,76.0053822 141.677214,76.0029473 C138.425186,75.9995558 135.329402,77.3821083 133.18178,79.7969397 C131.033254,77.3831361 127.938191,76.0003708 124.686345,76.0014763 C122.334678,76.0014763 120.152474,76.7070633 118.344872,77.9256679 C117.241878,76.7085324 114.774262,76.0014763 113.357613,76.0014763 L113.357613,104 L114.774262,103.930912 C117.143767,103.776564 118.856233,102.128728 118.948397,99.8032345 L119.024208,98.4008833 L119.024208,88.6050024 L119.094075,87.2041199 C119.153536,86.1472118 119.302187,85.2181908 119.785305,84.3905972 C120.80031,82.6642186 122.666918,81.6016194 124.686345,81.6005937 C126.707485,81.6010253 128.575224,82.6665089 129.587386,84.396477 Z M32.6621363,103.932381 L34.0787853,104 L55.3136553,104 L55.2437883,102.603529 C55.0520276,100.301555 53.4034827,98.6199085 51.0681672,98.4699715 L49.651519,98.4008833 L36.9120832,98.4008833 L53.8970058,81.5991234 L53.8271401,80.2041223 C53.717137,77.8786286 51.9987263,76.1984534 49.651519,76.0705651 L48.2348695,76.0073568 L27,76.001477 L27.0698662,77.4023592 C27.2556806,79.6822825 28.9280102,81.3992078 31.2440008,81.5315055 L32.6621363,81.6005937 L45.4015717,81.6005937 L28.416649,98.4023536 L28.4865152,99.8032345 C28.6262476,102.111088 30.3104693,103.782444 32.6621363,103.930912 L32.6621363,103.932381 Z M107.799532,80.0997543 C110.45497,82.7250735 111.946827,86.2861085 111.946827,89.9992689 C111.946827,93.7124292 110.45497,97.2734642 107.799532,99.8987834 C102.268103,105.364222 93.3046302,105.364222 87.7732007,99.8987834 C82.2448499,94.4319633 82.2448499,85.5665732 87.7732007,80.0997543 C90.4261967,77.4753173 94.0248513,76.000586 97.777447,76.0000034 C101.53621,75.9974262 105.141762,77.4728829 107.799532,80.1012246 L107.799532,80.0997543 Z M103.793375,84.0642636 C107.109179,87.3456445 107.109179,92.6631825 103.793375,95.9445634 C100.475061,99.2234634 95.097672,99.2234634 91.7793581,95.9445634 C88.4635538,92.6631825 88.4635538,87.3456445 91.7793581,84.0642636 C95.097672,80.7853636 100.475061,80.7853636 103.793375,84.0642636 Z M68.0649826,76.0000067 C71.8177917,76.0009759 75.4164764,77.4762484 78.0692288,80.1012246 C83.5990652,85.5665732 83.5990652,94.4334335 78.0692288,99.8987834 C72.5377994,105.364222 63.5743267,105.364222 58.0428972,99.8987834 C52.5145464,94.4319633 52.5145464,85.5665732 58.0428972,80.0997543 C60.6958931,77.4753173 64.2945478,76.000586 68.0471435,76.0000067 L68.0649826,76.0000067 Z M74.0630702,84.0613244 C77.3798643,87.3428736 77.3798643,92.6615439 74.0630702,95.9430931 C70.7447565,99.2219923 65.3673683,99.2219923 62.0490546,95.9430931 C58.7332502,92.6617123 58.7332502,87.3441742 62.0490546,84.0627934 C65.3673683,80.7838942 70.7447565,80.7838942 74.0630702,84.0627934 L74.0630702,84.0613244 Z" id="Zoom" fill="#FFFFFF"></path>
        </g>
    </g>
</svg>