<svg fill="#454545" width="24" height="24" viewBox="0 0 192 192" xmlns="http://www.w3.org/2000/svg"><path d="M0 0h192v192H0V0z" fill="none"/><path d="M87.34 104.66a7.967 7.967 0 0011.28 0l32.35-32.35c-3.467-4.068-6.569-8.502-10.5-12.06L87.34 93.38a7.967 7.967 0 000 11.28z"/><path d="M160 24h-40c-4.4 0-8 3.6-8 8s3.6 8 8 8h20.72l-32.976 32.976c3.808 3.729 6.995 8.041 10.545 12.015L152 51.28V72c0 4.4 3.6 8 8 8s8-3.6 8-8V32c0-4.4-3.6-8-8-8z"/><path d="M160 96c-4.4 0-8 3.6-8 8v40c0 4.4-3.6 8-8 8H48c-4.4 0-8-3.6-8-8V48c0-4.4 3.6-8 8-8h40c4.4 0 8-3.6 8-8s-3.6-8-8-8H40c-8.88 0-16 7.2-16 16v112c0 8.8 7.2 16 16 16h112c8.8 0 16-7.2 16-16v-48c0-4.4-3.6-8-8-8z"/></svg>