<svg fill="#454545" width="24" height="24" viewBox="0 0 192 192" xmlns="http://www.w3.org/2000/svg"><path d="M.25.25h192v192H.25V.25z" fill="none"/><path d="M134.783 127.368c-5.799 0-10.988 2.289-14.956 5.876l-54.406-31.667c.382-1.755.687-3.51.687-5.341s-.305-3.586-.687-5.341l53.795-31.361c4.12 3.815 9.538 6.181 15.566 6.181 12.667 0 22.892-10.225 22.892-22.892S147.45 19.93 134.783 19.93c-12.667 0-22.892 10.225-22.892 22.892 0 1.831.305 3.586.687 5.341L58.783 79.524c-4.12-3.815-9.538-6.181-15.566-6.181-12.667 0-22.892 10.225-22.892 22.892s10.225 22.892 22.892 22.892c6.028 0 11.446-2.365 15.566-6.181l54.329 31.743c-.382 1.602-.61 3.281-.61 4.96 0 12.285 9.996 22.281 22.281 22.281s22.281-9.996 22.281-22.281c0-12.285-9.996-22.281-22.281-22.281z"/></svg>